{"title":"The Secret of Moonacre.2008.DvDRip.XViD.Swe_Sub.avi","uid":5484888,"size":731356202,"categoryP":"video","categoryS":"movies","magnet":"?xt=urn:btih:4b6ac5abfbaa451bc99f20548f715bb1b7340ee1&amp;dn=The+Secret+of+Moonacre.2008.DvDRip.XViD.Swe_Sub.avi&amp;tr=udp%3A%2F%2Ftracker.openbittorrent.com%3A80&amp;tr=udp%3A%2F%2Fopen.demonii.com%3A1337&amp;tr=udp%3A%2F%2Ftracker.coppersurfer.tk%3A6969&amp;tr=udp%3A%2F%2Fexodus.desync.com%3A6969","seeders":3,"leechers":0,"uploader":"Zen_Bud","files":-1,"time":1270653885,"description":"General\nComplete name                    : The Secret of Moonacre.avi\nFormat                           : AVI\nFormat/Info                      : Audio Video Interleave\nFile size                        : 697 MiB\nDuration                         : 1h 38mn\nOverall bit rate                 : 988 Kbps\n\nVideo\nID                               : 0\nFormat                           : MPEG-4 Visual\nCodec ID/Hint                    : XviD\nDuration                         : 1h 38mn\nBit rate                         : 847 Kbps\nWidth                            : 720 pixels\nHeight                           : 436 pixels\nDisplay aspect ratio             : 2.35:1\nFrame rate                       : 25.000 fps\nResolution                       : 8 bits\nColorimetry                      : 4:2:0\nScan type                        : Progressive\nBits/(Pixel*Frame)               : 0.108\nStream size                      : 598 MiB (86%)\nWriting library                  : XviD 1.1.2 (UTC 2006-11-01)\n\nAudio\nID                               : 1\nFormat                           : MPEG Audio\nFormat version                   : Version 1\nFormat profile                   : Layer 3\nMode                             : Joint stereo\nCodec ID                         : 55\nCodec ID/Hint                    : MP3\nDuration                         : 1h 38mn\nBit rate mode                    : Constant\nBit rate                         : 128 Kbps\nChannel(s)                       : 2 channels\nSampling rate                    : 48.0 KHz\nStream size                      : 90.4 MiB (13%)\n\n\n","torrent":{"xt":"urn:btih:4b6ac5abfbaa451bc99f20548f715bb1b7340ee1","amp;dn":"The+Secret+of+Moonacre.2008.DvDRip.XViD.Swe_Sub.avi","amp;tr":["udp%3A%2F%2Ftracker.openbittorrent.com%3A80","udp%3A%2F%2Fopen.demonii.com%3A1337","udp%3A%2F%2Ftracker.coppersurfer.tk%3A6969","udp%3A%2F%2Fexodus.desync.com%3A6969"],"infoHash":"4b6ac5abfbaa451bc99f20548f715bb1b7340ee1","infoHashBuffer":{"type":"Buffer","data":[75,106,197,171,251,170,69,27,201,159,32,84,143,113,91,177,183,52,14,225]},"announce":[],"urlList":[]}}